<svg xmlns="http://www.w3.org/2000/svg" width="314" height="44" viewBox="0 0 314 44">
  <g id="dark" transform="translate(0 -29)">
    <g id="Group_3408" data-name="Group 3408" transform="translate(0 29)">
      <g id="Group_4617" data-name="Group 4617">
        <path id="Path_10450" data-name="Path 10450" d="M10,0H304a10,10,0,0,1,10,10V34a10,10,0,0,1-10,10H10A10,10,0,0,1,0,34V10A10,10,0,0,1,10,0Z" fill="#202123"/>
        <path id="Path_10447" data-name="Path 10447" d="M3,0H194a3,3,0,0,1,3,3V23a3,3,0,0,1-3,3H3a3,3,0,0,1-3-3V3A3,3,0,0,1,3,0Z" transform="translate(10 8)" fill="#252731"/>
        <rect id="Rectangle_6982" data-name="Rectangle 6982" width="10" height="10" transform="translate(15 16)" fill="#565960"/>
        <rect id="Rectangle_6983" data-name="Rectangle 6983" width="59" height="10" transform="translate(35 16)" fill="#565960"/>
      </g>
    </g>
  </g>
</svg>
