<svg id="userDummy" xmlns="http://www.w3.org/2000/svg" xmlns:xlink="http://www.w3.org/1999/xlink" width="85" height="95" viewBox="0 0 85 95">
  <defs>
    <clipPath id="clip-path">
      <circle id="Ellipse_11" data-name="Ellipse 11" cx="42.5" cy="42.5" r="42.5" fill="#322a7d"/>
    </clipPath>
  </defs>
  <circle id="Ellipse_10" data-name="Ellipse 10" cx="42.5" cy="42.5" r="42.5" transform="translate(0 10)" fill="#322a7d"/>
  <ellipse id="Ellipse_6" data-name="Ellipse 6" cx="4.203" cy="4.228" rx="4.203" ry="4.228" transform="translate(56.977 25.474)" fill="#d98f67"/>
  <ellipse id="Ellipse_7" data-name="Ellipse 7" cx="4.203" cy="4.228" rx="4.203" ry="4.228" transform="translate(20.549 25.474)" fill="#d98f67"/>
  <path id="Path_4" data-name="Path 4" d="M27.014,49.175,17,37.088V25H37.028V37.088Z" transform="translate(15.722 17.307)" fill="#d98f67"/>
  <path id="Path_5" data-name="Path 5" d="M49.051,17.844C49.051,2.533,13,7.771,13,17.844v14.1a18.026,18.026,0,1,0,36.051,0Z" transform="translate(11.71 0.288)" fill="#e59e76"/>
  <path id="Path_6" data-name="Path 6" d="M32.028,4C19.811,4,12,13.872,12,26.161v4.634l4.006,3.425V24.146L40.04,16.088l8.011,8.058V34.219l4.006-3.425V26.161c0-8.058-2-16.117-12.017-18.132L38.037,4H32.028Z" transform="translate(10.708 -4)" fill="#000001"/>
  <g id="Mask_Group_1" data-name="Mask Group 1" transform="translate(0 10)" clip-path="url(#clip-path)">
    <path id="Path_7" data-name="Path 7" d="M48.059,31h0a24.183,24.183,0,0,1-10.014,2.015A24.183,24.183,0,0,1,28.031,31S6,35.029,6,57.19L40.488,95.025l29.6-37.835C70.091,35.029,48.059,31,48.059,31Z" transform="translate(4.691 13.395)" fill="#ffa101"/>
  </g>
</svg>
